<?xml version="1.0" encoding="UTF-8"?>
<svg id="Layer_1" data-name="Layer 1" xmlns="http://www.w3.org/2000/svg" viewBox="0 0 450 450">
  <defs>
    <style>
      .cls-1 {
        fill: #2c1810;
      }
    </style>
  </defs>
  <path class="cls-1" d="M282.32,246.35c-20.86,11.97-168.76,8.27-154.53-6.6,1.51-1.57,6.32-5.59,9.09-5.63l89.09-1.24c17.31-.24,30.74-1.67,46.65-9.6-4.25-12-9.88-27.65-20.98-33.82-34.48-19.15-74.44-26.1-112.97-33.8-3.05-.61-5.94-8.17-4.45-10.76,1.5-2.59,8.94-7.06,11.89-6.57,30.31,5.08,60.01,11.64,88.93,19.47,25.89,7.01,41.81,24.1,55.29,49.04,9.67-18.12,9.66-37.94,11.1-57.75,1.86-25.57-11.59-44.36-36.8-51.02-33.23-8.77-67.44-11.9-102.51-12.88-8.27-.23-17.38-1.6-23.71-7.2,3.1-4.48,12.27-10.01,16.37-9.92,36.76.77,127.57-.23,149.85,26.21,20.23,23.99,20.56,111.6-3.34,138.52,6.18,24.62,8.66,48.53,9.44,74.32l2.77,92.06c.11,3.6-7.51,10.51-10.99,10s-8.41-7.11-8.59-11.15l-3.9-88.12c-.94-21.36-3.84-43.68-7.71-63.55Z"/>
</svg>