<?xml version="1.0" encoding="UTF-8"?>
<svg id="Layer_1" data-name="Layer 1" xmlns="http://www.w3.org/2000/svg" viewBox="0 0 450 450">
  <defs>
    <style>
      .cls-1 {
        fill: #2c1810;
      }
    </style>
  </defs>
  <path class="cls-1" d="M198.3,300.16c-8.63,10.87-22.8,22.43-35.61,15.61-3.38-1.8-8.59-10.48-6.74-13.87,12.11-22.15,51.28-44.08,69.08-71.79-13.32-27.41-26.25-48.62-44.3-71.65-2.48-3.16-3.72-9.55-4.2-15.52,26.86-.12,48.27,41.48,63.25,63.69,19.78-27.42,25.17-60.51,27.34-94.12l3.76-58.19c.26-3.96,7.78-9.97,11.22-10.04,23.21-.45,1.59,121.99-2.69,142.26-3.66,17.34-12.82,32.02-25.06,45.11l-1.33,30.9-3.59,141.82c-49.59,25.58-8.86-119.41-18.59-145.18l-32.53,40.97Z"/>
</svg>