<?xml version="1.0" encoding="UTF-8"?>
<svg id="Layer_1" data-name="Layer 1" xmlns="http://www.w3.org/2000/svg" viewBox="0 0 450 450">
  <defs>
    <style>
      .cls-1 {
        fill: #2c1810;
      }
    </style>
  </defs>
  <path class="cls-1" d="M177.88,238.3c15.74-3.79,34.66,34.77,58.86,18.98,16.4-10.7,18.46-31.88,11.32-49.44-19.46-47.93-57.83-57.46-91.53-92.35,43.82,4.82,59.88,32.61,95.78,48.24-2.41-18.53-2.95-37.55-11.44-52.93-14.5-26.24-41.72-40.73-68.69-50.38-8.06-2.89-14.67-7.57-18.19-14.92,27.15-8.19,82.4,25.62,94.99,41.84,20.98,27.03,28.29,60.59,25.74,94.29,12.72,88.22-28.89,134.95,18.7,222.42-19.27-6.86-34.65-24.51-38.59-44.06-4.52-22.39-8.54-44.35-14.85-66.54-5.17-18.17-34.29-.91-55.38-34.58-3.59-5.73-8.3-13.05-6.7-20.57Z"/>
</svg>