<?xml version="1.0" encoding="UTF-8"?>
<svg id="Layer_1" data-name="Layer 1" xmlns="http://www.w3.org/2000/svg" viewBox="0 0 450 450">
  <defs>
    <style>
      .cls-1 {
        fill: #2c1810;
      }
    </style>
  </defs>
  <path class="cls-1" d="M223.57,280.51l-69.74,99.72c-4.47,6.39-9.65,11.1-16.83,15.14,14.76-44.72,58.29-92.79,71.53-134.8,9.61-35.04-2.44-73.97,2.7-111.52l-101.64,66.83c19.62-28.64,47.03-46.32,71.51-67.54l27.59-23.91.3-68.09c.02-5.22,4.58-13.05,9.62-13.57,18.19,42.81-4.75,68.58,20.18,88.21,32.29,25.42,66.63,47.84,91.48,80.54-38.76-17.79-67.34-43.69-100.87-66.99l.05,115.89,73.01,86.93c10.88,12.96,23.3,22.35,28,39.89-11.95-7.15-21.03-16.02-30.22-25.73l-76.68-81.01Z"/>
</svg>