<?xml version="1.0" encoding="UTF-8"?>
<svg id="Layer_1" data-name="Layer 1" xmlns="http://www.w3.org/2000/svg" viewBox="0 0 450 450">
  <defs>
    <style>
      .cls-1 {
        fill: #2c1810;
      }
    </style>
  </defs>
  <path class="cls-1" d="M225.12,268.88c-11.48,2.61-36.9,44.67-44.06,58.52-10.41,20.12-19.62,39.74-28.25,60.68-4.31,10.45-8.91,20.64-19.6,26.47,10.41-63,37.26-116.47,71.89-167.34,7.36-10.81,7.4-31.53,7.07-44.04l-1.22-47.24c-22.91,24.12-44.91,47.54-78.14,62.54l64.24-90.26c5.17-7.26,7.2-21.66,10.32-30.49,2.73-23.33,4.33-43.38,10.02-67.64,8.97,25.8,11.1,47.95,16.88,72.64,8.88,37.93,62.62,88.84,73.57,131.4-27.93-20.98-47.69-46.08-71.26-69.06,3.58,23.39-8.15,54.69,5.59,73.98l34.14,47.93c24.2,33.98,37.89,74.78,45.95,119.15-25.51-20.57-71.78-143-97.12-137.23Z"/>
</svg>