<?xml version="1.0" encoding="UTF-8"?>
<svg id="Layer_1" data-name="Layer 1" xmlns="http://www.w3.org/2000/svg" viewBox="0 0 450 450">
  <defs>
    <style>
      .cls-1 {
        fill: #2c1810;
      }
    </style>
  </defs>
  <path class="cls-1" d="M301.12,361.54c-31.2-35.75-56.76-72.22-74.38-116.46-7.76,17.01-14.12,35.56-25.17,51.28-23.09,32.82-48.29,61.79-76.8,90.75-8.16-5.2-6.32-11.76-1.64-17.11,53.93-61.64,107.33-122.77,92.66-212.34l-80.87,41.98c-2.71,1.41-12.13.05-12.02-2.99s3.45-9.09,6.64-10.9c29.07-16.43,57.41-31.72,88.31-46.11l-1.1-79.23c-.04-2.77,4.11-7.96,6.62-8.09s9,5.3,9.09,8.3l2.51,77.9,100.11,52.11c2.68,1.39,5.41,9.61,3.14,10.69s-9.76,2.74-12.98,1.09l-90.28-46.28,1.1,50.82c1.15,53.44,61.9,131.63,99.28,169.64,2.21,2.25,3.07,9.33,2.06,12.03s-9.94,3.11-11.94.83l-24.36-27.92Z"/>
</svg>