<?xml version="1.0" encoding="UTF-8"?>
<svg id="Layer_1" data-name="Layer 1" xmlns="http://www.w3.org/2000/svg" viewBox="0 0 450 450">
  <defs>
    <style>
      .cls-1 {
        fill: #2c1810;
      }
    </style>
  </defs>
  <path class="cls-1" d="M175.01,58.01c-20.44,19.88-22.06,66.81-.71,87.19,18.06,17.24,47.55,12.95,62.64,24.36,25.46,19.26,4.71,87.39,3.06,115.42,2.9,2.84,41.65-3.89,46.48-9.01,13.9-14.72-3.26-70.62,24.06-60.01,8.54,8.85,4.65,56.27-.83,68.23-8.72,19.03-57.25,20.62-75.84,23.16-20.85,37.82-36.87,97.28-80.85,112.62l56.97-113.97c-27.51,1.27-62.36-7.34-74.36-35.14-4.31-9.97-11.57-37.8-.74-44.51,16.33-10.12,14.6,26.66,18.8,35.45,11.21,23.42,42.44,25.45,65.02,22.88,3.89-17.04,17.05-89.04,5.03-98.93-7-5.76-37.33-8.27-51.81-17.19-54.6-33.62-41.14-133.36,27.9-141.25,66.02-7.55,129.47,41.56,107.73,110.72-5.93,18.85-47.6,56.82-49.76,31.4-.93-10.96,18.79-18.18,25.56-28.59,18.81-28.89.69-73.81-30.25-86.46-19.59-8.01-61.96-12.08-78.09,3.61Z"/>
</svg>