<?xml version="1.0" encoding="UTF-8"?>
<svg id="Layer_1" data-name="Layer 1" xmlns="http://www.w3.org/2000/svg" viewBox="0 0 450 450">
  <defs>
    <style>
      .cls-1 {
        fill: #2c1810;
      }
    </style>
  </defs>
  <path class="cls-1" d="M239.98,166.89c13.78-1.91,58.63.1,67.73-5.77,11.87-7.65,8.18-23.45,11.04-33.73.76-2.74,10.34-36.59,17.23-29.05l17.99,318.86c-34.61-17.29-18.76-91.92-32.74-111.99-2.48-3.56-9.52-6.34-13.91-7.04-12.13-1.94-37.01-2.7-50.68-3.3-21.4-.93-104.61-2.73-118.52,7.72-10.64,7.99-15.08,97.94-34.62,114.55-6.5.09-4.87-31.65-4.45-37.14,3.57-47.31,16.12-97.29,18.08-145.95,1.91-47.47-8.22-94.62-3.11-141.66,26.4,1.72,17.97,67.11,24.41,71.09l77.58,3.41-.13-126.79,7.58-25.18c21.23,45.72,14.89,102.34,16.53,151.97ZM135.42,270.77c12.97,8.57,22.09,3.14,33.96,3.26,34.99.35,70.33-1.23,105.25,0,12.8.45,48.01,13.48,49.13-7.1l-6.16-71.34-4.58-4.39c-56.76-7.71-115.82-1.4-173.22-3.78l-4.38,83.34Z"/>
</svg>