<?xml version="1.0" encoding="UTF-8"?>
<svg id="Layer_1" data-name="Layer 1" xmlns="http://www.w3.org/2000/svg" viewBox="0 0 450 450">
  <defs>
    <style>
      .cls-1 {
        fill: #2c1810;
      }
    </style>
  </defs>
  <path class="cls-1" d="M283.64,286.36c7.77.76,39.36,5.06,30.18,18.05-6.18,8.74-22.36,2.65-30.06,2.68-20.48.08-41.34-1.04-61.68,1.57-12.82,23.64-21.74,49.45-34.38,73.13-7.82,14.65-19.04,43.47-37.55,38.68-6.82-6.68,30.24-64.74,35.56-76.42,2.4-5.27,14.89-34.07,12.43-36.8-16.88-4.64-34.07-1.69-51.15-4.35-3.48-.54-30.23-6.58-23.84-13.54,28.79-8.96,54.53-2.1,83.57-3.42l21.66-84.1c-1.17-5.99-29.13-4.79-36.4-6.22-8.48-1.68-24.72-9.76-28.87-10.05-10.15-.73-15.47,18.71-24.14-14.77-5.27-20.35-16.99-91.98-3.98-106.61s109.11-20.93,130.6-19.17c101.5,8.3,93.37,71.84,57.28,146.21l-73.44,9.01-21.29,86.12c17.92,1.26,37.85-1.72,55.5,0ZM311.62,172.61c15.89-51.48,36.86-100.04-37.03-106.73-18.67-1.69-113.97-.05-123.01,14.79-.89,13.2,3.15,88.65,10.39,94.2,20.32-4.44,39.27,3.34,58.7,4.17,30.83,1.32,60.88-.02,90.95-6.43Z"/>
</svg>