<?xml version="1.0" encoding="UTF-8"?>
<svg id="Layer_1" data-name="Layer 1" xmlns="http://www.w3.org/2000/svg" viewBox="0 0 450 450">
  <defs>
    <style>
      .cls-1 {
        fill: #2c1810;
      }
    </style>
  </defs>
  <path class="cls-1" d="M371.95,39.01c7.78,13.65,2.78,22.2,2.91,34.36.99,91.21,4.78,181.86,6.01,273.25.23,17.14,9.59,37.86-7.38,52.32-11.66-5.03-7.62-29.92-15.4-32.55-31.87-2.46-118.52,19.09-124.17-28.82-4.96-42.05-2.11-92.35-2.81-135.19-.46-28.21-7.82-56.91.67-86.08,12.94-44.46,86.08-39.75,122.17-35.33,2.61-13.86-1.17-43.61,17.99-41.95ZM252,210h105l-2.98-108.02c-33.21-.15-68.94-1.36-99.27,14-9.66,30.07-6.43,63.19-2.75,94.01ZM360,345v-112.5c0-8.13-20.27-1.51-25.38-1.36-27.48.81-55.18-.87-82.64-.15l3.08,100.45c5.33,28.18,84.32,11.05,104.94,13.56Z"/>
  <path class="cls-1" d="M86.98,84.01c16.81-2.11,32.99,2.66,49.52,3.17,18.41.57,31.27-7.85,50.59,3.22,17.07,9.78,19.03,48.32,20.06,66.95,2.44,44.22,3.26,109.53-.03,153.26-5.67,75.31-54.91,46.92-111.13,52.37,2.55,18.59-.43,56.56-20.99,28.53l-2.87-198.13c-.76-21.3-12.5-131.25-4.78-142.52,12.88-18.79,26.22,21.25,19.64,33.16ZM186,213v-67.5c0-2.92-3.84-24.11-4.99-28.01-6.54-22.08-30.4-9.11-47.56-9.26-14.77-.13-30.76-5.94-46.47-3.25l6.01,108.01h93ZM186,234h-93c.63,36.36,3.41,71.59,0,108h79.5c6.13,0,13.5-14.3,13.5-19.5v-88.5Z"/>
</svg>