<?xml version="1.0" encoding="UTF-8"?>
<svg id="Layer_1" data-name="Layer 1" xmlns="http://www.w3.org/2000/svg" viewBox="0 0 450 450">
  <defs>
    <style>
      .cls-1 {
        fill: #2c1810;
      }
    </style>
  </defs>
  <path class="cls-1" d="M350.84,41.96c2.19-12.82,9.66-21.85,17.77-7.07,7.43,13.54-.03,55.59.24,74.76,1.31,93.91,2.04,187.76-5.89,281.82-1.11,13.15-1.83,30.18-13.47,37.37l-8.94-8.9c-4.22-50.07,5.97-100.77,7.06-151.05-1.6-4.59-53.44-18.26-63.75-23.26-31.63-15.33-39.09-30.1-43.84-64.16-4.67-33.52-5.06-83.07-3.18-117.11.49-8.89,3.01-47.64,10.71-49.37,29.78,18.33,70.01,14.48,103.28,26.97ZM348,63l-86.98-14.99c-2.9,20.9-3.72,41.85-3.03,63l90.02,14.99v-63ZM351.02,149.99l-88.6-17.64-4.24,6.79c6.35,18.41-1.31,51.82,10.47,67.71,2.56,3.46,76.56,36.42,79.34,33.13l3.03-90Z"/>
  <path class="cls-1" d="M117.03,51c27.21-9.97,96.52-47.49,104.25-.78,5.72,34.54,3.76,84-3.18,118.39-12.62,62.59-57.06,50.13-104.19,73.5-6.15,23.15-1.19,47.73-2.94,71.37-1.95,26.25-5.24,61.04-9.16,86.84-.59,3.92-1.92,7.52-4.25,10.74l-9.02,3.16c-5.41-.49-6.63-2.76-7.54-7.72-2.09-11.45-.8-41.06-.13-54.12,3.13-61.18,13.08-123.56,15.25-185.75,1.35-38.67-4.48-86.27-.18-123.18,3.44-29.53,20.19-12.23,21.09,7.56ZM201,97.5c1.97-11.45,0-32.13,0-45,0-4.53-8.99-4.42-12.72-3.93-21.52,2.8-47.97,22.14-71.28,23.43v57c24.8-12.8,52.8-20.31,80.39-24.57.75-2.17,3.33-5.29,3.61-6.93ZM194.98,126.01l-78,17.98c3.58,23.22-6.9,47.03.31,68.75,4.99,3.43,54.54-16.86,59.84-22.11,12.18-12.06,15.36-47.87,17.85-64.62Z"/>
</svg>