<?xml version="1.0" encoding="UTF-8"?>
<svg id="Layer_1" data-name="Layer 1" xmlns="http://www.w3.org/2000/svg" viewBox="0 0 450 450">
  <defs>
    <style>
      .cls-1 {
        fill: #2c1810;
      }
    </style>
  </defs>
  <path class="cls-1" d="M134.96,407.99c-7.22-3.59-7.96-18.11-8.93-25.53-6.12-47.07-2.56-98.84-6.07-146.93-4.1-56.24-17.93-115.97-20.94-171.06-.55-10.05-3.89-40.64,10.51-40.62s9.28,40.33,22.49,46.8c53.13-7.7,75.63,1.27,86.15,54.67,8.95,45.41,6.73,103.09,6.84,149.2.08,35-48.72,37.93-73.59,43.41l-16.46,90.07ZM135.02,177.02c18.98-5.61,37.29-2.34,56.4-.65,17,1.51,7.61-41.16,4.66-52.94-11.47-45.75-30.96-32.9-70.08-30.43l9.03,84.02ZM197.23,284.25c3.87-4.06,9.16-80.73,5.39-86.35-6.69-9.98-52.15-.46-64.45.27l8.81,95.86c12.43,1.04,41.37-.48,50.24-9.77Z"/>
  <path class="cls-1" d="M330,66.01c-1.96-8.76,3.35-51.08,18.17-40.69,10.06,7.05.4,48.15-.14,60.21-3.77,84.07-5.71,171.43-15.06,254.94-.94,8.41-9.73,67.42-16.47,67.47-5.5-3.61-4.21-7.95-4.63-13.31-1.83-22.94-.33-38.31.3-60.06,1.21-41.35-42.65-11.01-56.38-48.86-8.38-23.1-11.18-104.36-9.91-131.33.87-18.53,4.84-67.19,9.86-83.14,11.62-36.97,49.02-.95,74.26-5.22ZM327.02,89.99l-51-6-9.19,73.68c-3.53,19.32,52.95,14.72,55.86,10.53l4.32-78.21ZM315.02,288.02c-2.75-21.54,11.62-69.79,5.49-88.03-4.31-12.8-39-6.62-50.52-8.01-3.13,3.13,1.99,80.45,6.51,88.02,6.27,10.48,28.1,7.72,38.52,8.02Z"/>
</svg>