<?xml version="1.0" encoding="UTF-8"?>
<svg id="Layer_1" data-name="Layer 1" xmlns="http://www.w3.org/2000/svg" viewBox="0 0 450 450">
  <defs>
    <style>
      .cls-1 {
        fill: #2c1810;
      }
    </style>
  </defs>
  <path class="cls-1" d="M291.02,368.98c13.48.05,29.55,1.01,42.66,3.84,4.81,1.04,28.73,5.33,21.91,14.25-6.23,4.7-13.51,5.38-20.97,6.04-54.38,4.78-151.39-.57-207.08-6.15-11.28-1.13-24.37-4.2-31.51-13.51-2.43-5.99,10.37-6.32,13.93-6.99,18.11-3.39,36.65-3.98,55.04-3.5-28.37-41.04-38.91-75.62-28.02-125.5,8.62-39.5,64.34-149.68,93.95-176.04,15.1-13.43,22.66-3.39,33.01,9.12,55.68,67.31,83.58,173.41,49.51,256.38l-22.43,42.04ZM244.71,90.13c-9.11,2.03-55.17,73.22-61.35,85.73-15.62,31.64-36.53,93.52-25.84,127.11,3.88,12.19,28.35,54.23,38.82,60.18,5.76,3.27,55.66,7.62,61.64,4.32,6.52-3.61,31.89-53.82,35.34-63.65,19.82-56.4,8.3-95.48-12.92-147.73-6.47-15.94-19.44-48.26-28.83-61.16-1.83-2.51-2.71-5.73-6.86-4.8Z"/>
</svg>