<?xml version="1.0" encoding="UTF-8"?>
<svg id="Layer_1" data-name="Layer 1" xmlns="http://www.w3.org/2000/svg" viewBox="0 0 450 450">
  <defs>
    <style>
      .cls-1 {
        fill: #2c1810;
      }
    </style>
  </defs>
  <path class="cls-1" d="M234,159c48.83,1.24,99.8-4.08,147.07,7.42,3.36,3.15,4.56,12.93,2.52,16.2-5.99,9.59-127.76-4.07-146.61.37l3.02,198.02h139.5c.75,0,8.29,4.74,9.06,5.98,4.79,13.87-2.85,17-14.89,18.2-93.39,9.3-202.19-7.37-297.24-.11-27.84-3.29-19.36-24.07-2.93-24.07h142.5v-193.5c-9.12-9.95-23.12-1.74-34.38-1.38-18.3.59-101.28,2.64-111.99-2.21-9.88-4.47-.96-21.92,6.86-21.92h136.5l-2.52-115.01c9.99-16.32,23.52-1.69,23.52,11.51v100.5Z"/>
</svg>