<?xml version="1.0" encoding="UTF-8"?>
<svg id="Layer_1" data-name="Layer 1" xmlns="http://www.w3.org/2000/svg" viewBox="0 0 450 450">
  <defs>
    <style>
      .cls-1 {
        fill: #2c1810;
      }
    </style>
  </defs>
  <path class="cls-1" d="M228,360c4.56-4.59-18.66-111.18-20.63-127.87-5.04-42.69-3.78-100.47-.33-143.6.55-6.83,3.62-34.56,10.47-34.47,7.27,9.02,12.26,20.68,16.57,31.37,16.93,42.02,35.36,108.34,32.9,153.04-1.17,21.22-7.44,44.9-8.94,66.06-1.31,18.42,1.54,37.18-1.76,55.56,36.43,8.59,76.72,1.86,113.4,9.74,6.59,1.41,32.34,6.87,26.16,16.95l-283.09,6.39c-2.78-.48-8.5-33.18-.24-33.18h115.5Z"/>
</svg>