<?xml version="1.0" encoding="UTF-8"?>
<svg id="Layer_1" data-name="Layer 1" xmlns="http://www.w3.org/2000/svg" viewBox="0 0 450 450">
  <defs>
    <style>
      .cls-1 {
        fill: #2c1810;
      }
    </style>
  </defs>
  <path class="cls-1" d="M286.22,419.7c-44.68,2.46-141.42,5.84-171.5-25.63-21.23-22.21-24.73-51.03-25.02-80.41l-.91-93.19-2.2-130.08c-.61-36.01,26.51-61,61.81-61.78,51.18-1.13,101.68-1.86,152.43-.24,34.56,1.11,58.06,29.03,55.71,61.53-.8,11.06,1.04,22.25,1.15,33l1.69,155.08c.64,58.74,5.38,137.38-73.18,141.71ZM330.5,196.85c3.55,0,7.4-9.75,7.38-12.7l-.52-87.41c-.19-32.08-23.85-48.26-54.01-47.71-15.22.28-30.52.03-46.69,2.18l-1.31,104.31c-.17,13.65-1.67,24.97.12,41.4l95.04-.07ZM187.28,196.72c10.19.34,18.87-.4,28.14-3.63l-.4-129.53c-.02-7.25-7.14-13.08-13.87-12.97l-48.05.78c-28.14.46-43.95,21.01-44.17,47.77l-.67,83.76c-.06,7.06,7.92,11.45,14.34,11.66l64.68,2.15ZM212.62,388.27l2.46-152.25c.07-4.55-.92-12.45-3.22-15.18-2.3-2.73-10.48-4.87-14.41-4.89l-88.65-.62c-.46,44.93-.16,86.9,6.28,130.46,2.12,14.38,10.87,26.13,21.27,35.29,13.59,3.28,75.91,28.7,76.26,7.19ZM335.98,342.6c4.27-39.28,3.72-78.08.9-116.55-6.42-3.07-15.69-6.61-21.46-6.69l-79.41-1.09c.35,57-.36,110.37-2.88,167.1-.3,6.67,5.35,14.87,11.53,14.5l30.68-1.8c31.94-1.87,56.83-20.4,60.65-55.47Z"/>
</svg>