<?xml version="1.0" encoding="UTF-8"?>
<svg id="Layer_1" data-name="Layer 1" xmlns="http://www.w3.org/2000/svg" viewBox="0 0 450 450">
  <defs>
    <style>
      .cls-1 {
        fill: #2c1810;
      }
    </style>
  </defs>
  <path class="cls-1" d="M231.51,398.22l-114.73-3.12c-11.84-.32-29.49-5.91-39.81-10.67-22.08-10.19-28.81-36.61-27.46-58.44-7.81-27.63-4.19-52.96-3.39-80.71l3.1-107.44c1-34.71-.49-70.38,35.98-74.99,69.67-8.8,89.9-2.96,154.92-6.66,38.44-2.19,84.24-2.46,122.48,1.34,39.31,3.91,33.34,53.11,34.27,85.58,1.95,68.08,2.56,134.25.27,202.09-.65,19.12-14.65,39.76-31.72,45.48-29.57,9.91-100.5,8.44-133.93,7.53ZM211.18,203.61l-6.48-86.74c-.94-12.61-1.69-24-5.29-35.72l-87.75-.38c-10.72-.05-29.79,5.14-32.88,17.12-6.44,24.98-6.88,49.67-9.23,75.47-.9,9.91-1.71,23.15,7.58,29.68l134.05.56ZM369.39,209.06c2.2-5.86,5.04-13.84,4.83-17.45l-5.24-89.67c-.71-12.15-9.26-20.2-21.45-19.58-33.83,1.7-66.08,2.11-100.2.67-6.16-.26-21.28-3.03-21.69,7.33-.77,19.27,3.27,106.45,10.49,112.3,3.26,2.64,12.89,6.07,18,6.09l115.27.31ZM205.83,373.46c2.94-1.67,7.9-9.24,7.9-12.62l.13-121.63c0-8.07-7.56-15.04-14.9-15.04l-127.93-.07c-6.52,23.22-3.28,86.84,1.1,109.08,3.61,18.33,16.93,29.98,34.58,34.19,20.15,4.81,92.62,9.8,99.13,6.09ZM375.37,276.32l-.09-40.15c-.01-5.33-13.75-9-18.74-8.55-40.16,3.62-79.97,2.34-119.48-.04l.3,146.25c39.66,4.14,76.86,3.52,116.55-1.31,22.83-2.78,21.5-75.5,21.46-96.2Z"/>
</svg>