<?xml version="1.0" encoding="UTF-8"?>
<svg id="Layer_1" data-name="Layer 1" xmlns="http://www.w3.org/2000/svg" viewBox="0 0 450 450">
  <defs>
    <style>
      .cls-1 {
        fill: #2c1810;
      }
    </style>
  </defs>
  <path class="cls-1" d="M337.75,402.36l-111.84-9.2-123.39-13.2c-12.33-1.32-29.08-4.94-38.18-12.48-12.8-10.61-15.15-30.12-14.86-45.36l1.17-62.9.46-65.65c.27-38.98-1.39-153.39,52.62-154.43,36.26-.7,71.37-.8,107.24,2.82l70.61,7.13c38.52,3.89,77.38,8.43,111.75,28.15,10.63,6.1,12.27,27.58,11.08,38.84l-10.02,94.85c-6.4,60.54-9.54,101.67-20.82,163.04-2.97,16.19-15.77,30.02-35.81,28.37ZM196.89,194.07c15.51-16.35,16.19-40.14,18.11-59.97,1.88-19.4,4.47-39.48-3.35-57.7-8.09-18.86-75.87-14.36-93.29-11.88-16.3,2.32-28.94,12.53-32,28.58-3.64,19.07-5.73,39.23-6.07,58.68-.33,19.31,11.33,31.55,29.31,36.74,26.93,7.77,58.79,11.93,87.27,5.55ZM363.99,191.52c3.78-19.2,16.76-96.48-7.92-102.97-26.35-6.94-52.08-9.18-78.2-12.95-14.65-2.11-26.76-1.38-32.98,15.71-8.39,23.09-6.78,50.22-4.66,75.37,1.55,18.33,7.4,29.91,24.88,36.96,24.22,9.77,90.73,29.25,98.88-12.11ZM190.82,343.91c8.49-31.52,11.78-61.75,12.96-94.1.51-14.03-9.4-26.22-23.59-27.87l-61.49-7.13c-20.17-2.34-36.09,7.49-39.84,29.49-5.05,29.62-2.58,60.63,2.36,91.83,3.31,20.89,67.32,22.06,85.68,22.46,7.5.16,21.92-7.24,23.93-14.68ZM309.8,374.15c14.41,1.49,25.97-.11,34.25-11.61,5.89-29.75,11.71-58.57,14.4-88.46,3.53-39.3-69.26-38.21-94.03-39.14-16.31-.62-30,8.31-32.56,25.08l-10.65,69.89c-1.56,10.21-1.26,28.16,10.77,32.8,24.27,9.35,50.79,8.66,77.83,11.45Z"/>
</svg>