<?xml version="1.0" encoding="UTF-8"?>
<svg id="Layer_1" data-name="Layer 1" xmlns="http://www.w3.org/2000/svg" viewBox="0 0 450 450">
  <defs>
    <style>
      .cls-1 {
        fill: #2c1810;
      }
    </style>
  </defs>
  <path class="cls-1" d="M210.64,269.02l-26.11,53.15c-15.2,20.48-31.61,42.99-51.3,59.36-8.4,6.99-42.36,32.72-50.89,21.23-11.67-15.7,9.5-17.98,17.89-24.46,20.15-15.55,52.9-46.71,67.05-67.5,36.79-54.04,35.77-170.07,40.3-235.43.7-10.14,6.59-50.49,20.71-29.59,9.47,14.02-2.02,72.89-2.83,92.59-3.24,78.98-1.2,153.64,62.96,206.87,14.44,11.98,40.59,24.53,53.22,36.4,11.77,11.06,2.73,22.54-11.84,18.07-8.96-2.75-53.47-36.92-62.53-45.18-24.47-22.3-47.8-53.26-56.62-85.52Z"/>
  <path class="cls-1" d="M288.4,101.24c4.26-2.98,15.99,1.65,17.05,7.86-1.33,26.79,12.56,123.19-2.24,140.52-4.79,5.61-10.7,6.2-15.29.11-5.48-7.27-2.52-83.27-2.61-99.36-.05-9.05-6.04-42.75,3.09-49.13Z"/>
  <path class="cls-1" d="M165.98,225.5c-.99,6.84-5.72,18.92-13.56,19.63-22.48,2.04-10.44-37.44-10.15-49.51.45-19.24-3.79-80.79,5.6-93.34,6.01-8.03,13.2-3.56,18.12,3.22-3.83,37.03,5.16,84.31,0,120Z"/>
</svg>