<?xml version="1.0" encoding="UTF-8"?>
<svg id="Layer_1" data-name="Layer 1" xmlns="http://www.w3.org/2000/svg" viewBox="0 0 450 450">
  <defs>
    <style>
      .cls-1 {
        fill: #2c1810;
      }
    </style>
  </defs>
  <path class="cls-1" d="M284.05,268.21l77.39-105.87c3.67-3.72,4.95-.76,7.42,1.66,10.48,10.32,8.36,45.99,7.52,60.96-7.03,125.38-81.59,194.81-208.68,167.02-110.1-24.08-106.3-146.06-86.3-234.04l22.08,18.13,58.33,92.11L243.78,50.68c5.66,5.27,7.85,12.93,9.62,20.18,10.16,41.53,11.69,95.08,19.2,138.75,3.39,19.71,9.29,38.72,11.46,58.61ZM93.29,199.67v90.89c0,9.37,16.77,42.81,23.86,50.65,23.79,26.3,83.96,34.17,117.34,30.95,79.99-7.73,116.42-62.27,119.95-138.71.38-8.28-4.72-17.08,1.15-26.29l-6.23.31-58.08,99.3-17.64,15.08c-4.29-.97-8.78-21.23-9.71-26.09-9.99-52.25-13.18-109.44-22.11-162.66-.69-4.1-.86-16.18-5.44-16.85-13.08,46.91-34.02,91.37-48.51,137.77-5.83,18.67-8.13,39.44-13.95,57.56-1.12,3.5-5.52,18.17-10.55,16.22-11.07-4.3-25.07-52.5-30.79-64.59-9.58-20.21-20-41.18-32.62-59.65-1.84-2.68.5-5.46-6.66-3.89Z"/>
</svg>