<?xml version="1.0" encoding="UTF-8"?>
<svg id="Layer_1" data-name="Layer 1" xmlns="http://www.w3.org/2000/svg" viewBox="0 0 450 450">
  <defs>
    <style>
      .cls-1 {
        fill: #2c1810;
      }
    </style>
  </defs>
  <path class="cls-1" d="M217.37,60.64c11-2.01,15.1,13.57,15.97,21.9,5.15,49.63-8.5,97.44.9,148.11,13.04,70.35,44.48,106.39,119.76,100.67,13.55-1.03,59.43-16.4,54.69,12.7-3.19,19.59-23.85,25.05-40.51,28.3-82.8,16.17-175.03,8.81-257.68-6.02-13.97-2.5-63.9-11.09-69.36-23.05-2.51-5.5-3.09-12.28,3.42-14.41,12.41-4.05,44.35,4.21,62.1,2.49,105.64-10.2,95.21-152.75,99.74-228.08.53-8.77,2.18-41.02,10.97-42.62Z"/>
  <path class="cls-1" d="M286.24,144.04c8.96-1.7,38.46,18.99,48.19,25.16,7.1,4.5,46.42,29.22,44.94,35.47-2.31,9.78-22.73,4.47-27.97,4.82-21.45,1.45-45.14,4.98-65.45-6.72-23.24-13.39-23.91-54.14.29-58.73Z"/>
  <path class="cls-1" d="M140.3,153.19c19.35-1.22,28.34,22.47,17.01,38.05-14.73,20.25-82.7,15.19-99.72-4.41.08-4.53,74.3-33.11,82.71-33.64Z"/>
</svg>