<?xml version="1.0" encoding="UTF-8"?>
<svg id="Layer_1" data-name="Layer 1" xmlns="http://www.w3.org/2000/svg" viewBox="0 0 450 450">
  <defs>
    <style>
      .cls-1 {
        fill: #2c1810;
      }
    </style>
  </defs>
  <path class="cls-1" d="M181.96,368.61c15.57-33.69,22.13-66.53,24.03-102.62l-50.24-43.83c-2.42-2.11-28.97-45.54-16.51-49.25,15.17-4.51,21.77,46.71,70.98,60.51l4.95-54.12c-39.53-51.97-46.09-30.4-58.12-98.49-.57-3.2,3-10.9,5.64-12.18,3.16-1.53,11.83,2.73,13.14,6.29l16.01,43.49c4.01,10.91,20.66,20.38,29.89,25.37,4.88-18.44,51.25-111.62,67.99-100.49,2.46,1.64,3.7,10.81,1.81,13.63-19.27,28.8-39.15,59.52-46.8,95.61l59.02-6.94c3.25-.38,11.09,4.94,11.57,8.1s-4.88,9.15-8,10.01l-69.07,18.99c-3.9,22.27-6.64,41.14-9.48,67.4,23.82,3.44,48.14-12.75,61.53-5.55,2.56,1.38,1.55,11.59-1.06,13.29-15.95,10.42-39.9,15.49-60.25,18.71-8.02,40.73-9.52,101.45-53.45,124.18-.89-11.02,1.68-21.85,6.44-32.15Z"/>
</svg>