<?xml version="1.0" encoding="UTF-8"?>
<svg id="Layer_1" data-name="Layer 1" xmlns="http://www.w3.org/2000/svg" viewBox="0 0 450 450">
  <defs>
    <style>
      .cls-1 {
        fill: #2c1810;
      }
    </style>
  </defs>
  <path class="cls-1" d="M173.93,377.73l39.66-76.08c4.61-8.84,5.08-26.04,4.04-35.91-11.81-5.23-26.34-7.62-36.42-15.3-12.99-9.89-24.02-30.61-21.77-46.53,1.16-8.21,18.95-2.91,21.42,2.99,7.13,17.02,18.47,26.06,37.38,30.62l-4.48-58.21c-7.37-1.3-21.67-2.32-26-6.77-13.87-14.27-39.79-59.56-26.98-70.04,2.5-2.05,11.41-1.7,14.1.43,19.92,15.73,7.8,51.27,41.16,47.36.77-11.38-.71-25.76,1.7-36.75,3.97-18.14,29.15-77.04,48.78-71.95,15.01,3.89-5.98,39.56-10.5,48.03-9.88,18.54-17.81,37.72-14.52,59.03,14.14-2.87,29.68-5.87,43.98-4.8,4.06.3,7.82,11.29,6.39,14.99-6.68,17.21-32.59,15.41-51.55,20.38l1.25,53.93c16.44-5.76,29.83-11.22,42.97-10.92,3.61.08,5.58,10.75,3.61,13.32s-6.29,8.29-9.23,9.88l-37.14,20.17c-2.09,21.35.04,45.22-12.14,62.8-17.9,25.84-37.08,48.69-58.74,74.14-6.92-8.75-1.25-16.6,3.03-24.82Z"/>
</svg>