<?xml version="1.0" encoding="UTF-8"?>
<svg id="Layer_1" data-name="Layer 1" xmlns="http://www.w3.org/2000/svg" viewBox="0 0 450 450">
  <defs>
    <style>
      .cls-1 {
        fill: #2c1810;
      }
    </style>
  </defs>
  <path class="cls-1" d="M219.98,287.88c-10.21,31.02-29.14,104.07-54.97,117.15-2.8,1.41-10.98-6.39-9.6-9.78,16.38-40.11,35.08-69.8,42.46-111.61-11.88-7.17-20.92-11.12-31.47-18.56-9.33-6.57-41.33-42.82-35.51-58.7.88-2.41,8.65-3.74,10.31-1.63l32.45,41.38c7.18,9.16,20.25,11.84,28.65,8.79l2.74-53.71c-25.28.45-94.03-77.74-68.49-86.47,12.84-4.39,16.67,24.85,32.51,40.61,10.74,10.68,20.72,18.04,34.2,27.61,1.32-38.07.07-71.76-2.5-108.29-.97-13.7,5.18-23.82,17.97-28.54,55.88-20.63,103.55,14.05,85.61,22.93-24.16,11.96-53.88-21.33-81.67-.91-5.75,20.61-2.46,44.22-.19,65.97l4.5,43.26c16.24-4.81,30.09-10.76,44.1-20.25l8.92-28.77c.7-2.25,5.46-7.17,7.31-6.17,16.46,8.9,5.38,39.85-12.17,51.88-15.95,10.93-30.99,18.72-49.02,25.49l-5.21,52.76,55.61-37.54c2.18-1.47,10.55.3,11.37,2.57,1.03,2.85.48,10.92-1.86,12.98l-34.45,30.37c-9.86,8.69-27.4,14.51-31.58,27.2Z"/>
</svg>