<?xml version="1.0" encoding="UTF-8"?>
<svg id="Layer_1" data-name="Layer 1" xmlns="http://www.w3.org/2000/svg" viewBox="0 0 450 450">
  <defs>
    <style>
      .cls-1 {
        fill: #2c1810;
      }
    </style>
  </defs>
  <path class="cls-1" d="M278.44,361.72l-17.39-31.71c-10.5-19.14-18.52-36.41-32.45-55.19-6.96,25.96-13.65,47.67-17.92,72.74l-8.32,48.83c-22.82-10.66,2.96-118.46,13.86-140.52l-41.06-46.26-15.44,50.56c-9.77-28.14-3.24-58.24,8.87-85.1,11.04-24.5,21.44-48.63,30.76-74.4,4.67-12.9-6.24-30.24,5.26-41.25,1.62-1.55,8.24,3.38,8.95,5.67l13.68,43.88c35.81,31.85,51.57,75.33,51.14,122.99-.08,8.54,2.52,23.97.52,31.12-.62,2.22-9.59,3.15-10.88,1.24-9.69-14.31-.84-33.4-8.66-55.86-10.02,13.76-18.47,29.22-21.76,44.62,8.46,14.33,19.47,28.26,25.96,42.94l21.09,47.72c2.82,6.38,2.84,16.15-6.21,18ZM254.85,183.28l-29.08-43.6-8.64,23.48-12.79-25.97-20.99,49.59,41.04,50.53,30.46-54.03Z"/>
  <path class="cls-1" d="M231.52,200.41c-17.37,10.99-34.84-11.14-34.41-17.57.23-3.46,9.73-5.09,12.77-3.42l9.43,5.19c2.39,1.31,6.61-5.77,8.14-8.04l4.13-6.11c1.11-1.64,7.34,3.14,8.28,4.99,4.06,8.04-1.43,20.59-8.34,24.96Z"/>
</svg>