<?xml version="1.0" encoding="UTF-8"?>
<svg id="Layer_1" data-name="Layer 1" xmlns="http://www.w3.org/2000/svg" viewBox="0 0 450 450">
  <defs>
    <style>
      .cls-1 {
        fill: #2c1810;
      }
    </style>
  </defs>
  <path class="cls-1" d="M309.52,364.34c-19.95-50.14-47.04-96.66-86.19-137.81-36,54.06-58.17,110.68-77.26,170.57-.71,2.24-4.9,5.64-7.09,6.25s-7.22-3.98-6.3-7.74c14.81-60.38,42.39-125.83,77.66-180.36-28.54-25.81-58-42.95-92.91-54.87l-41.18,27.71c-2.33,1.57-8.61,1.65-10.77,1.26-2.68-.48-2-9.84.42-11.55l39.13-27.77c32.18-22.84,65.93-38.64,103.22-51.61l-3-39.02c-.25-3.24,4.45-10.03,7.56-10.36,3.11-.33,10.18,4.47,10.66,7.96l5.32,38.63c53.14,17.43,102.92,41.47,143.52,80.18,2.4,2.28,3.96,10.16,2.99,13.13-4.45,13.65-49.01-34.77-63.99-39.62-29.55,15.21-55.14,33.39-77.62,61.35,37.92,34.04,71.71,95.41,89.29,143.74l11.77,32.36c1.04,2.86-2.72,11.67-5.43,11.55-2.71-.12-7.06-3.3-8.48-5.51l-11.32-28.46ZM221.7,199.95c19.26-24.44,38.01-44.27,61.35-64.57-68.96-35.27-69.45-22.01-140.35,11.51,29.06,17.1,53.44,32.81,79,53.06Z"/>
</svg>