<?xml version="1.0" encoding="UTF-8"?>
<svg id="Layer_1" data-name="Layer 1" xmlns="http://www.w3.org/2000/svg" viewBox="0 0 450 450">
  <defs>
    <style>
      .cls-1 {
        fill: #2c1810;
      }
    </style>
  </defs>
  <path class="cls-1" d="M212.05,323.09c-22.63,21.43-35.46,54.88-60.45,68.21,10.49-43.38,21.52-51.71,47.29-85.58-20.74-21.71-40.94-39.83-64.48-60.1l-12.39,17.13c-2.46,3.4-10.26,6.71-14.64,4.92-13.28-5.44,9.44-40.78,15.48-50.11,23.45-36.25,51.5-65.8,82.61-97.09l-1.33-62.91c-.08-3.95,3.55-10.9,5.28-13.72s13.28-1.75,14,2.04c4.39,23.06,5.93,50.06,6.48,76.9,46.75,31.75,86.45,71.58,116.37,120.21,1.75,2.84,1.08,9.56-1.03,11.54s-10.86,1.86-12.96-.2l-14.18-13.9c-31.43,17.02-58.29,36.87-86.57,62.23l29.59,41.29c10.75,15,14.88,35.2,9.44,55.12-9.15-8.1-18.31-17.38-25.03-27.18l-33.48-48.79ZM257.41,252.9l30.15-22.48c3.39-2.53,8.32-10.26,7.56-14.1-.65-3.29-5.29-7.72-8.67-10.83l-63.96-58.99c-20.37-.73-65.03,57.28-71.91,75.05,19.56,27.6,42.27,48.19,66.56,66.44,13.92-13.58,25.67-24.22,40.26-35.09Z"/>
  <path class="cls-1" d="M227.39,229.97c9.46-7.67,1.13-19.94,4.33-32.28.52-2,7.74-3.36,9.1-1.88,8.63,9.41,11.46,30.64,1.15,41.81-8.96,9.7-27.7,16.11-40.26,4.25-13.21-12.48-9.81-52.88,5.78-46.71,9.1,3.6-.8,15.14,3.66,29.67,1.32,4.31,12.39,8.27,16.24,5.14Z"/>
</svg>