<?xml version="1.0" encoding="UTF-8"?>
<svg id="Layer_1" data-name="Layer 1" xmlns="http://www.w3.org/2000/svg" viewBox="0 0 450 450">
  <defs>
    <style>
      .cls-1 {
        fill: #1d1d1d;
      }
    </style>
  </defs>
  <path class="cls-1" d="M77.05,366.78c30.05,7.44,58.78,10.91,84.72,3.75,4.66-37.24,11.93-69.33,18.9-105.27l38.21-197.27-53.43-16.85c39.53-29.71,119.74,36.91,140.13,74.89,37.31,69.52,21.68,160.15-35.33,214.96-38.62,37.14-92.49,54.43-143.97,53.32-20.7-.45-41.81-4.47-49.22-27.52ZM293.12,138.72c-11.74-27.74-37.57-44.86-61.65-62.7-7.03,97.44-24.69,188.05-46.24,287.57,101.51-24.16,143.75-140.12,107.9-224.87Z"/>
</svg>