<?xml version="1.0" encoding="UTF-8"?>
<svg id="Layer_1" data-name="Layer 1" xmlns="http://www.w3.org/2000/svg" viewBox="0 0 450 450">
  <defs>
    <style>
      .cls-1 {
        fill: #1d1d1d;
      }
    </style>
  </defs>
  <path class="cls-1" d="M206.08,386.5c-24.74,4.46-45.7,9.34-67.97,21.28-9.3-20.32,16.32-32.07,34.13-36.48,1.44-37.99,5.77-78.33,9.46-118.41l16.4-178.32c-12.14-8.43-24.42-17.28-33.61-31.52,31.92,12.71,56.8,23.91,86.35,33.73,36.59,12.16,60.96,39.01,60.76,81.33-.22,47.11-5.4,96.02-14.02,143.12-8.35,45.61-44.62,76.82-91.5,85.28ZM270.84,106.62c-20.27-10.59-39.42-18.13-59.96-25.83,1.41,99.94-5.87,190.37-23.78,287.17,44.92,2.09,85.12-24.03,93.06-70.01,7.36-42.64,31.23-170.16-9.32-191.33Z"/>
  <path class="cls-1" d="M246.02,296.61c-18.57,8.66-3.49-143.43,5.72-140.13,8.55,48.23,1.97,92.44-5.72,140.13Z"/>
</svg>