<?xml version="1.0" encoding="UTF-8"?>
<svg id="Layer_1" data-name="Layer 1" xmlns="http://www.w3.org/2000/svg" viewBox="0 0 450 450">
  <defs>
    <style>
      .cls-1 {
        fill: #1d1d1d;
      }
    </style>
  </defs>
  <path class="cls-1" d="M264.58,67.09c-19.96-12.2-41.43-4.68-48.71,11.88,19.83,11.97,82.68,59.35,63.75,80.79-27.12-25.63-47.17-44.71-76.33-69.59-11.46,12.29-18.74,22.53-27.58,38.19,73.45,52.22,54.46,105.9,37.31,76.31-11.82-20.39-26.81-38.81-45.59-55.44-21.65,14.56-16,41.8-45.52,49.33,15.39-50.12,73.81-187.48,139.58-154.82,39.71,19.72,112.5,74.77,76,129-64.93,96.45-145.44,104.69-174.86,244.4-18.92-17.13-10.75-37.29-5.03-55.52,28.63-91.26,103-119.05,162.3-193.53,33.68-42.3-19.84-79.31-55.32-101Z"/>
</svg>