<?xml version="1.0" encoding="UTF-8"?>
<svg id="Layer_1" data-name="Layer 1" xmlns="http://www.w3.org/2000/svg" viewBox="0 0 450 450">
  <defs>
    <style>
      .cls-1 {
        fill: #2c1810;
      }
    </style>
  </defs>
  <path class="cls-1" d="M48.1,91.13c.1-3.53,12.68-6.69,15.47-4.54,10.8,8.34,8.92,31.07,18.33,33.87,35.94,10.69,78.37-2.97,123.53-3.88l95.58-1.93c20-.4,38.87,2.49,59.49.16,12.68-1.43,2-31.67,20.12-36.9,4.99-1.44,14.02,6.71,14.33,12.95l2.3,46.45c2.41,48.6,4.46,95.96-6.3,143.27-5.33,23.46-17.33,42.25-31.93,60.63-24.99,31.47-56.94,53.1-97.64,60.56-82.65,15.15-148.21-.38-179.47-85.04-26.58-71.99-36.14-146.76-33.82-225.61ZM232.95,379.56c64.99-5.61,119.71-47.37,136.39-111.88,6.3-24.37,22.65-125.64-12.64-129.81-41.71-4.93-82.06-3.73-124.09-1.67-16.82.82-33.8.37-49.95,2.1l-93.36,10.04c-7.08.76-16.55,8.63-16.29,16.74,1.81,56.34,15.4,110.27,37.64,161.35,21.58,49.55,74.21,57.28,122.3,53.13Z"/>
</svg>