<?xml version="1.0" encoding="UTF-8"?>
<svg id="Layer_1" data-name="Layer 1" xmlns="http://www.w3.org/2000/svg" viewBox="0 0 450 450">
  <defs>
    <style>
      .cls-1 {
        fill: #2c1810;
      }
    </style>
  </defs>
  <path class="cls-1" d="M372.41,178.71c-.14,65.52,12.3,177.2-50.4,208.38-37.9,18.85-117.39,17.28-160.9,14.53-13.95-.88-28.94-6.58-42.56-10.6-12.55-3.71-23.18-13.95-27.45-26.44-25.44-74.39-13.81-141.01-15.33-218.48l-1.71-87.01c-.09-4.78,6.8-11.53,11.24-11.94,5.58-.52,12.15,5.95,12.43,11.97l2.24,47.39c22.29,1.36,39.54-.73,60.9-1.48,59.32-2.09,116.48-1.2,176.06-.18,6.59.11,11.52-5.64,11.77-12.2l1.28-33.89c.13-3.52,4.58-9.14,6.65-10.92,2.52-2.16,11.99,3.54,12.3,7.62,2.92,38.42,3.56,82.31,3.47,123.26ZM337.48,337.97c10.88-19.76,10.68-41.43,11.76-63.8,1.7-35.41,2.51-68.7,1.32-104.48-.39-11.57,3.89-29.97-4.86-38.26-7.96-7.55-24.92-5.57-35.76-5.94-63.62-2.12-124.33-1.35-187.75,2.76-7.54.49-17.81,2.37-23.02,7.38-4.27,60.91-10.08,156.92,8.33,213.26,12.09,36.99,67.13,32.3,104.13,32.37,54.3.1,100.78,2.24,125.86-43.3Z"/>
</svg>