<?xml version="1.0" encoding="UTF-8"?>
<svg id="Layer_1" data-name="Layer 1" xmlns="http://www.w3.org/2000/svg" viewBox="0 0 450 450">
  <defs>
    <style>
      .cls-1 {
        fill: #2c1810;
      }
    </style>
  </defs>
  <path class="cls-1" d="M329.86,63.18c52.69,38.6,36.72,180.67,22.11,229.62-10.34,34.66-36.87,60.35-62.4,84.31-25.78,24.19-62.87,28.82-93.28,9.89-38.87-24.2-63.1-62-86.27-100.59-15.6-25.98-26.08-50.37-28.92-81.18l-4-43.38c-2.78-30.21-2.81-58.05-.88-88.64.39-6.2,8.79-14.38,13.94-15.19s16.71,4.13,18.27,9.67c13.44,47.86-1.83,48.04,4.4,96.29,1.91,14.83,17.14,26.08,32.04,24.63l154.72-15.03c14.42-1.4,23.59-16.52,24.44-28.46l5.84-81.94ZM320.2,284.12c6.08-10.82,24.42-71.23,2.9-76.51-47.77-11.73-139.94,3.1-188.16,13.94-5.12,1.15-12.38,9.37-13.44,13.88-3.97,16.76,37.83,72.31,51.24,89.01,13.49,16.8,30.53,30.51,50.06,40.21,34.52,17.15,82.86-54.62,97.41-80.52Z"/>
</svg>