<?xml version="1.0" encoding="UTF-8"?>
<svg id="Layer_1" data-name="Layer 1" xmlns="http://www.w3.org/2000/svg" viewBox="0 0 450 450">
  <defs>
    <style>
      .cls-1 {
        fill: #2c1810;
      }
    </style>
  </defs>
  <path class="cls-1" d="M185.66,68.31c-2.96,35.91-5.06,72.24-9.28,108.04-7.58,64.3-15.13,152.78-29.63,213.91-3.11,13.1-8.95,18.34-22.15,10.88-2.1-4.29-1.58-8.86-1.34-13.42,3.05-58.41,19.22-125.45,26.38-184.65,5.41-44.69,9.18-89.86,12.27-134.77-3.44-3.44-45.76,8.33-44.03-12.92,1.69-8.34,20.28-10.31,27.58-10.93,32.74-2.79,94.89-1.64,127.1,3.79,15.17,2.56,28.48,13.69,35.48,26.91,22.16,41.86,32.89,196.96,35.15,249.96.51,11.98,1.59,67.94-2.78,74.14-17.17,9.53-22.37-20.32-23.76-32.75-6.77-60.56-3.35-123.13-9.25-183.81-1.96-20.13-11.78-91.15-23.63-104.08-2.54-2.78-16.93-10.29-19.41-10.29h-78.71Z"/>
</svg>