<?xml version="1.0" encoding="UTF-8"?>
<svg id="Layer_1" data-name="Layer 1" xmlns="http://www.w3.org/2000/svg" viewBox="0 0 450 450">
  <defs>
    <style>
      .cls-1 {
        fill: #2c1810;
      }
    </style>
  </defs>
  <path class="cls-1" d="M329.53,410.8c-41.56-15.95-58.44-246.5-71.4-246.16-28.39,48.47-56.25,101.27-92.8,144.23-14.97,17.6-30.92,35.69-54.61,41.11-6.07-6.02,56.81-83.8,63.26-93.26,20.36-29.87,47.98-72.18,62.5-104.69,3.65-8.18,10.45-18.34,6.5-26.89-9.66-20.91-72.94-48.92-83.84-65.22-13.28-19.87,7.97-17.86,22.4-10.25,29.41,15.51,79.87,55.41,93.9,85.45,29.16,88.96,37.09,183.79,54.1,275.68Z"/>
</svg>