<?xml version="1.0" encoding="UTF-8"?>
<svg id="Layer_1" data-name="Layer 1" xmlns="http://www.w3.org/2000/svg" viewBox="0 0 450 450">
  <defs>
    <style>
      .cls-1 {
        fill: #2c1810;
      }
    </style>
  </defs>
  <path class="cls-1" d="M202.79,427.05c-6.4-3.13-8.95-24.66-9.05-31.58-.91-64.48,56.98-142.1,50.21-193.65-2.7-20.59-16.38-40.83-17.2-62.11l-30.41,51.86c-18.45,21.32-33.68,46.18-57.93,61.83-6.6,1.92-4.97-5.93-4.23-10.22,2.89-16.69,31.98-48.21,42.22-65.55,24.79-41.98,40.43-92.64,63.79-133.77,4.17-7.35,8.8-16.67,16.48-20.9,7.32,29.5-14.26,58.52-11.99,85.3,1.97,23.22,21.71,48.6,25.64,73.19,8.5,53.23-18.34,91.88-34.63,139.29-12.14,35.34-18.51,71.92-32.91,106.31Z"/>
</svg>