<?xml version="1.0" encoding="UTF-8"?>
<svg id="Layer_1" data-name="Layer 1" xmlns="http://www.w3.org/2000/svg" viewBox="0 0 450 450">
  <defs>
    <style>
      .cls-1 {
        fill: #2c1810;
      }
    </style>
  </defs>
  <path class="cls-1" d="M143.08,375.23c-1.55,3.6-6.79,7.25-9.39,8.5s-11.32-4.48-10.22-7.51c67.33-186.36-10.26-294.2,1.1-311.55,21.03-32.12,75.75,177.85,18.51,310.55Z"/>
  <path class="cls-1" d="M335.74,327.25c7.67,18.41,26.84,33.03,17.53,45.16-2.13,2.77-13.31.35-15.16-2.75-60.4-101.54-62.16-199.68-20.63-308.57,1.29-3.38,7.9-6.11,10.29-5.89,11.24,1.03-10.87,61.78-15.27,85.59-12.59,68.09-3.47,122.35,23.24,186.46Z"/>
  <path class="cls-1" d="M227.7,390.34l-1.48-98.59-2.91-165.38-1.56-67.88c-.13-5.87,2.64-12.4,9.69-15.24,3.91,7.63,6.46,16.89,6.63,25.18l2.77,132.98,1.63,189.08c.03,3.31-5.44,8.06-7.64,8.02-2.2-.04-7.09-5.02-7.14-8.16Z"/>
</svg>