<?xml version="1.0" encoding="UTF-8"?>
<svg id="Layer_1" data-name="Layer 1" xmlns="http://www.w3.org/2000/svg" viewBox="0 0 450 450">
  <defs>
    <style>
      .cls-1 {
        fill: #2c1810;
      }
    </style>
  </defs>
  <path class="cls-1" d="M232.91,286.2c.01,2.22,1.66,63.05-15.83,48.02-1.96-1.68-4.9-6.49-4.9-9.35l-.3-199.82-1.02-30.54c-.1-3.15,6.27-9.38,9.12-8.79,12.48,2.58,11.77,26.07,11.84,36.67l1.08,163.81Z"/>
  <path class="cls-1" d="M143.83,193.67c-2.24,12.74-24.4,106.49-42.12,93.87-15.08-10.74,18.91-67.75,20.98-114.68l1.26-28.67c.12-2.65,5.24-7.85,7.38-9.49,16-12.24,15.46,42.16,12.51,58.97Z"/>
  <path class="cls-1" d="M360.63,250.59c2.32,3.38,2.52,9.18,1.47,11.81-1.25,3.15-12.4,3.98-14.9,1.37-49.78-52.07-54.26-132-38.34-129.92,17.19,2.24,8.68,54.07,51.76,116.75Z"/>
</svg>