<?xml version="1.0" encoding="UTF-8"?>
<svg id="Layer_1" data-name="Layer 1" xmlns="http://www.w3.org/2000/svg" viewBox="0 0 450 450">
  <defs>
    <style>
      .cls-1 {
        fill: #2c1810;
      }
    </style>
  </defs>
  <path class="cls-1" d="M82.96,100.97c19.05-20.25,30.35-19.92,57.48-25.02,137.58-25.85,290.09-2.95,261.2,174.2-20.63,126.48-117.29,142.75-229.25,133.96-23.62-1.85-39.31-8.07-53.71-27.29-31.43-41.93-67.99-197.86-47.45-245.08,2.94-6.75,8.25-7.07,11.73-10.77ZM87,108.03c7.17,10.9.41,21.14.03,31.5-1.88,50.3,18.41,189.66,64.39,217.55,14.47,8.78,79.44,7.3,99.21,6.04,63.79-4.06,107.59-29.84,125.21-93.79,48.79-176.98-100.85-197.06-235.45-172.45-17.98,3.29-34.95,12.12-53.38,11.14Z"/>
  <path class="cls-1" d="M287.27,230.28c-7.26,7.25-91.49,5.08-102.95-2.1-9.46-5.93-14.2-17.44-2.13-23.51,14.23-7.15,99.29-4.96,107.45,8.27,2.66,4.31,1.05,13.91-2.38,17.34Z"/>
</svg>