<?xml version="1.0" encoding="UTF-8"?>
<svg id="Layer_1" data-name="Layer 1" xmlns="http://www.w3.org/2000/svg" viewBox="0 0 450 450">
  <defs>
    <style>
      .cls-1 {
        fill: #2c1810;
      }
    </style>
  </defs>
  <path class="cls-1" d="M338.5,419.53l-.06-23.73c-.5-.65-11.49,6.54-14.66,7.46-36.65,10.65-126.27,4.34-165.69-2.4-34.08-5.83-42.65-6.32-50.5-41.14-11.85-52.57-15.12-154.79-16.8-211.53-.58-19.5-4.54-71.99,13.77-81.32,8.08-4.12,56.5-12,67.41-12.52,18.58-.89,41.78,3.89,62.01,3.34,31.96-.85,68.11-5.79,100.01-6.26,42.95-.64,41.14,20.15,39.97,55.23-1.45,43.32-9.93,87.17-11.88,130.45-1.99,44.21,8.13,137.38-14.2,172.61-2.36,3.73-4.79,8.57-9.38,9.81ZM338.48,383.94l13.46-305.8c-5.25-7.37-27.17.06-35.46.32-34.38,1.09-68.99-.97-103.39-.24l-98.18,9.42c-3.33,2.09-3.62,37.31-3.49,42.76,1.32,57.04,6.37,126.73,11.93,183.77,1.5,15.4,2.33,42.06,11.68,53.51,17.4,21.29,87.33,12.83,113.41,19.35l90.04-3.09Z"/>
  <path class="cls-1" d="M311.95,217.8c1.19,6.72-.33,4.73-3.77,6.63-21.16,11.67-106.27,10.32-133.24,8.15-4.57-.37-28.08-3.53-27.98-7.38,50.07-22.02,111.83-13.79,164.99-7.4Z"/>
</svg>