<?xml version="1.0" encoding="UTF-8"?>
<svg id="Layer_1" data-name="Layer 1" xmlns="http://www.w3.org/2000/svg" viewBox="0 0 450 450">
  <defs>
    <style>
      .cls-1 {
        fill: #2c1810;
      }
    </style>
  </defs>
  <path class="cls-1" d="M170.38,27.88c33.98-2.4,106.78-3.36,138.79,3.45,28.01,5.95,44.52,37.13,47.8,63.2,8.78,69.81,9.62,175.42,2.67,245.61-5.45,55-37.32,72.3-88.5,79.5-24.25,3.41-126.15,7.86-144.3,1.02-29.48-11.11-30.7-43.84-33.79-71.21-3.04-26.86-1.61-54.13-6.17-80.83,6.62-59.61-8.54-137.59.32-194.93,5.81-37.62,53.43-43.71,83.19-45.81ZM342.01,222.01c2.37-2.39-5.72-52.79-6.14-61.39-1.74-35.86,12.57-95.09-35.07-105.93-33.72-7.67-130.17-11.67-161.45-.84-19.71,6.83-31.29,26.19-31.6,46.67-.27,17.67.29,35.99.12,53.85-.21,21.41.1,42.94.45,64.31l233.68,3.33ZM342,243H115.5c-.83,0-7,3.08-7.61,5.06,3.5,40.47-.43,88.57,10,127.55,5.94,22.18,10.67,24.27,33.66,26.34,36.85,3.31,137.2,1.63,166.25-19.65,11.77-8.62,14.58-16.72,17.42-30.58,6.79-33.25,4.4-74.46,6.78-108.72Z"/>
</svg>