<?xml version="1.0" encoding="UTF-8"?>
<svg id="Layer_1" data-name="Layer 1" xmlns="http://www.w3.org/2000/svg" viewBox="0 0 450 450">
  <defs>
    <style>
      .cls-1 {
        fill: #2c1810;
      }
    </style>
  </defs>
  <path class="cls-1" d="M193.98,12.08c13.02-3.85,31.7,30.81,36.6,40.38,69.26,135.35-33.84,212.33-17.32,336.08,1.66,12.45,22.55,47.36,1.09,49.56-11.23.66-18.29-20.47-20.9-29.88-31.99-115.31,73.13-209.23,24-330.8-5.58-13.8-28.55-45.56-30.02-53.44-.78-4.21,2.52-10.71,6.56-11.9Z"/>
  <path class="cls-1" d="M162,391.78c-.8,2.83-8.69,8.98-12.96,7.17-3.04-1.05-4.67-3.37-6.36-5.88-12.91-19.23,1.71-95.26,8.82-119,4.18-13.94,13.35-55.97,33.06-38.79,5.3,8.65-9.03,36.23-12.06,47.73-2.56,9.73-10.5,35.31-10.5,43.21,0,14.32,2.88,55.36,0,65.56Z"/>
  <path class="cls-1" d="M279.41,217.03c-7.06-13.92,2.51-28.51,4.75-43.63,3.42-23.01,4.96-36.82-1.32-59.6-3.55-12.86-21.64-40.79-12.07-50.55l7.22-3.18c30.35,21.43,34.6,76.04,30.7,110.87-1.3,11.59-10.29,57.97-29.27,46.09Z"/>
  <path class="cls-1" d="M281.59,259.57c8.09,5.05-8.01,48.68-10.13,59.17-6.32,31.25-12.33,61.27-10.9,93.48-2.11,6.39-10.26,5.55-15.71,4.57-2.71-.61-3.41-2.4-4.28-4.73-7.64-20.44,2.16-67.8,6.88-90.34,2.35-11.24,12.91-58.82,21.55-62.05,2.71-1.01,10.37-1.47,12.58-.09Z"/>
  <path class="cls-1" d="M166.45,60.12c13.29-1.04,28.64,52.86,30.73,64.26,2.36,12.9,3.69,61.77-2.41,70.46-4.42,6.29-10.56,6.78-16.39,1.73-4.21-3.64-.8-46.71-1.75-57.73-.62-7.15-2.34-18.95-3.97-25.85-3.95-16.69-23.62-40.79-6.19-52.87Z"/>
</svg>