<?xml version="1.0" encoding="UTF-8"?>
<svg id="Layer_1" data-name="Layer 1" xmlns="http://www.w3.org/2000/svg" viewBox="0 0 450 450">
  <defs>
    <style>
      .cls-1 {
        fill: #2c1810;
      }
    </style>
  </defs>
  <path class="cls-1" d="M238.94,24.35l11.72,2.49c10.33,14.87-37.53,118.81-31.69,148.65,1.92,9.8,37.09,23.17,44.74,42.3,13.26,33.14-9.21,117.65-19.91,153.5-3.55,11.87-13.37,44.88-18.11,53.88-6.84,13-18.31,5.71-18.58-6.27,7.78-30.81,18.26-60.9,25.43-91.87,7.2-31.09,21.99-74.55,3.97-103.04-10.59-16.75-34.65-20.31-40.11-40.92-5.08-19.17,16.86-91.46,24.12-114.06,2.75-8.55,11.92-42.56,18.43-44.66Z"/>
  <path class="cls-1" d="M173.11,276.39c23.72-6.81,13.7,31.74,10.92,44.13-3.13,13.95-15.92,59.36-34.88,54.06-7.53-3.35-8.37-7.58-7.57-15.2,1.09-10.46,19-65.52,24.11-75.2,1.76-3.34,3.44-6.65,7.42-7.79Z"/>
  <path class="cls-1" d="M308.07,297.46c5.08-1.47,10.64-1.13,12.48,4.5,4.63,14.17-4.64,83.77-16.02,94.05-5.84,5.27-11.8,4.41-16.3-1.82-5.57-7.7,4.05-58.04,7.26-70.2,2.04-7.71,4.93-24.33,12.57-26.54Z"/>
  <path class="cls-1" d="M274.96,72.34c4.11-1.32,8.66-.83,11.61,2.61,8.83,8.84.2,68.7-7.44,76.67-5.66,5.9-12.88,6.11-16.61-1.64-4.37-9.09,2.43-74.43,12.44-77.64Z"/>
  <path class="cls-1" d="M156.73,69.76c5.59-5.83,14.5-3.15,16.72,4.41,3.54,12.03-14.92,88.22-32.72,65.55-5.78-7.36,10.27-63.98,16-69.96Z"/>
</svg>