<?xml version="1.0" encoding="UTF-8"?>
<svg id="Layer_1" data-name="Layer 1" xmlns="http://www.w3.org/2000/svg" viewBox="0 0 450 450">
  <defs>
    <style>
      .cls-1 {
        fill: #2c1810;
      }
    </style>
  </defs>
  <path class="cls-1" d="M303,399.2c-38.19-12.42-69.23-72.45-81.1-108.64-20.33-61.98-2.77-119.41-18.79-178.03-6.58-24.09-20.35-43.41-30.58-64.98-.9-1.89-10.43-21.19-3.03-20.77,10.38,14.27,30.33,24.1,40.49,37.2,32.58,42.03,14.45,143.36,25.97,197.71,10.93,51.56,46.47,90.18,67.04,137.51Z"/>
  <path class="cls-1" d="M299.83,187.53l-8.75.08c-6.09-28.28-28.77-65.12-10.58-92.3,24.3,24.1,27.2,60.5,19.33,92.21Z"/>
  <path class="cls-1" d="M135.03,110.17c4.84-1.11,6.1,1.71,9.06,4.37,15.57,14.03,20.36,69.33,7.41,87.94-20.67-24.9-23.25-61.66-16.47-92.31Z"/>
  <path class="cls-1" d="M191.98,366.43c-3.69,4.14-16.27-13.71-17.92-16.44-6.57-10.87-24.31-58.87-7.18-63.81,9.28-1.35,12.52,6.9,15.33,13.99,3.44,8.68,13.64,61.91,9.76,66.27Z"/>
  <path class="cls-1" d="M304.48,253.28c15.34-.75,31.88,55.75,32.46,69.13.14,3.18,3.93,4.21-2.42,8.21-12.54.4-47.37-64.55-30.04-77.34Z"/>
</svg>