<?xml version="1.0" encoding="UTF-8"?>
<svg id="Layer_1" data-name="Layer 1" xmlns="http://www.w3.org/2000/svg" viewBox="0 0 450 450">
  <defs>
    <style>
      .cls-1 {
        fill: #2c1810;
      }
    </style>
  </defs>
  <path class="cls-1" d="M218.33,53.99l93.89-6.2c10.8-.51,23.21,4.71,16.69,16.88-9.28,7.8-21.55,7.86-33.1,7.35,2.52,24.81,10.01,86.84-5.91,105.7-3.85,4.57-17.27,7.77-14.95,12.75,1.3,2.79,17.43,12.32,22.19,19.68,25.28,39.02-24.87,69.47-22.4,103.32.8,10.92,24.68,47.81,33.06,56.95,16,17.46,44,27.83,50.57,52.55-8.79,2.61-14.13,4.67-23.07.77-2.72-1.18-29.65-25.22-33.58-29.2-23.24-23.52-52.83-63.85-46.92-98.33,3.68-21.44,36.96-52.36,24.41-73.91-3.93-6.75-37.82-29.41-44.72-30.32-7.22-.95-56.66,11.11-57.9,16.56,4.17,16.59,35.7,21.73,32.92,38.87-3.96,24.39-50.22-21.44-58.25-28.35-13.81,0-10.82,45.19-10.55,55.55,1.02,40.18,1.86,88.63-3.17,128.64-1.58,12.53-10.46,16.43-17.08,5.74-9.29-15-1.61-119.3-.24-143.45,1.34-23.56-7.61-45.72,17.58-63.06-29.1-23.56-56.87-89.41-26.77-120,14.48-14.72,62.51-20.41,83.33-25.61.19-7.24-.26-14.34.93-21.59,2.36-14.43,5.24-23.21,21.73-14.47l1.32,33.16ZM215.33,75v52.5c0,1.21,4.33,19.61,5.21,21.75,7.19,17.44,27,21.97,43.9,18.68,24.92-4.86,10.01-76.18,7.19-95.6l-56.31,2.67ZM194.47,78c-16.27,5.17-53.66,8.84-66.5,17.8-26.6,18.56,8.33,83.59,32.19,95.39l52.18-17.23c-3.2-5.55-7.68-8.56-10.45-14.94-1.92-4.43-7.42-24.99-7.42-28.53v-52.5Z"/>
</svg>