<?xml version="1.0" encoding="UTF-8"?>
<svg id="Layer_1" data-name="Layer 1" xmlns="http://www.w3.org/2000/svg" viewBox="0 0 450 450">
  <defs>
    <style>
      .cls-1 {
        fill: #2c1810;
      }
    </style>
  </defs>
  <path class="cls-1" d="M237,90.8c32.53.44,67.86-.3,100.12,3.35,11.94,1.35,25.96,4.52,34.82,13.04l-29.56,10.82c-1.33,30.75-7.05,82.89-33.31,102.5-19.54,14.6-48.42,13.87-72.06,16.33-6.22,5.23,29.46,35.03,32.59,40.61,10.45,18.66,7,64.39,6.41,86.06-.34,12.55,2.08,57.59-10.55,64.01-5.01,2.55-4.77-3.57-5.83-5.93-12.86-28.67.11-77.93-1.53-108.88-2.02-38.05-33.43-42.38-44.07-76.03l-97.02-2.82c.48,13.34-.68,27.07-3.12,40.16-.9,4.85,2.04,5.18-5.86,4.53-11.1-41.53-13.15-92.34-1.59-134.17,14.54-52.61,63.59-50.55,109.57-53.57,1.1-10.07-4.26-68.35,7.48-68.5,5.72,3.7,13.5,16.08,13.5,22.29v46.19ZM216.02,111.65c-41.93,1.55-80.69-4.76-92.18,44.06-3.01,12.77-6.12,37.74-6.09,50.52,0,3.16.89,5.11,3.47,6.97,4.46,3.2,88.53,9,91.8,5.77l3-107.32ZM320.84,117.77l-83.86-6.12c2.95,16.21-9.53,99.28-.06,106,34.53-3.84,61.06,1.51,75.19-35.84,7.59-20.09,10.33-42.66,8.73-64.03Z"/>
</svg>