<?xml version="1.0" encoding="UTF-8"?>
<svg id="Layer_1" data-name="Layer 1" xmlns="http://www.w3.org/2000/svg" viewBox="0 0 450 450">
  <defs>
    <style>
      .cls-1 {
        fill: #2c1810;
      }
    </style>
  </defs>
  <path class="cls-1" d="M266.69,69.74c23.36,7.74,77.75,11.86,79.19,43.87.64,14.26-4.14,70.15-19.72,74.37l-74.57-19.7.46,33.8c4.22,12.24,82.5,28.62,92.62,53.39,7.77,19-15.72,78.74-38.16,82.61-26.71,4.6-85.96-38.27-114.51-44.62,7.81,37.69,35.97,70.12,45.34,108.11.97,3.91,5.7,5.68-2.13,5.12-22.84-29.6-50.59-62.74-61.95-98.98-24.25-77.36,85.35-.81,111.05,5.15,28.87,6.69,41.15-28.22,41.48-51.92l-91.34-42.72-4.16-55.47-60.98-21.38-4.2,6.01-5.91.07c2.65-14.97-8.52-15.32-18.26-22.1-3.59-2.5-7.28-.13-5.58-7.71l26.81,2.98c.31-17.33,5.61-54.43,21.09-63.83,17.64-10.71,39.98,8.46,59.53,2.88,3.31-2.25-1.01-40.22,13.34-43.32,14.8-3.2,13.61,45.16,10.55,53.39ZM236.68,138.5l4.68-53.79c-11.84-3.79-35.35-15.98-46.45-10.34-4.52,2.29-18.53,46.93-16.6,49.35l58.37,14.78ZM265.42,91.11c-7.28,2.41-7.86,44.03-9.6,53.36l61.47,19.59c5.79-3.83,10.86-45,7.29-52.42-3.47-7.23-51.69-23.01-59.17-20.54Z"/>
</svg>