<?xml version="1.0" encoding="UTF-8"?>
<svg id="Layer_1" data-name="Layer 1" xmlns="http://www.w3.org/2000/svg" viewBox="0 0 450 450">
  <defs>
    <style>
      .cls-1 {
        fill: #2c1810;
      }
    </style>
  </defs>
  <path class="cls-1" d="M237,409.5c-.71,3.98-10.34,19.38-13.5,19.44-12.93-15-3.75-35.02-4.25-49.44-.25-7.15-3.23-13.72-3.37-20.88-.41-20.51.58-41.13.09-61.62-10.82,10.68-18.39,24.63-28.43,36.04-6.72,7.64-45.23,46.97-51.01,48.01-4.58.82-5.24-.11-4.59-4.58,12.89-38.17,76.81-88.8,81.05-125.96,3.43-30.09-1.87-65.08-3.71-95.3-4.22-11.33-67.35-90.34-62.28-95.19,28.2,5.63,44.6,39.89,65.96,56.98.85-32.78-2.5-68.51,10.51-98.98,19.57,28.1,9.11,69.4,10.55,101.98,21.28-20.63,40.17-44.33,65.94-60-1.62,34.29-58.22,74.74-65.25,101.22-2.93,11.05-2.44,78.67-.8,92.36,3.21,26.83,83.52,103.52,81.09,116.85-1.44,7.9-10.31.84-13.49-1.45-23.42-16.9-41.46-45.37-64.52-62.98-3.86,30.86,5.2,74.29,0,103.5Z"/>
</svg>