<?xml version="1.0" encoding="UTF-8"?>
<svg id="Layer_1" data-name="Layer 1" xmlns="http://www.w3.org/2000/svg" viewBox="0 0 450 450">
  <defs>
    <style>
      .cls-1 {
        fill: #2c1810;
      }
    </style>
  </defs>
  <path class="cls-1" d="M237.03,164.51l68.9-102.89,7.62,1.52c4.02,6.05-3.76,24.77-7,31.88-31.5,68.95-73.9,84.19-66.5,172.26,5.02,59.69,50.98,72.5,68.94,123.7l-13.64-2.81-52.32-50.81c.12,5.75,3.11,10.22,3.27,16.28.37,13.62-1.16,48.73-6.02,59.99-9.48,21.96-13.51-9.71-14.89-18.54-2.88-18.4-3.44-39.05-3.42-57.71l-35.86,46.29c-4.62,2.44-27.78,23.79-30.12,11.74,12.64-35.2,63.08-73.1,64.89-110.69,1.49-30.96.37-113.11-5.56-141.89-3.09-14.97-55.62-92.48-47.31-100.49l11.19,2.26,30.76,36.45,3.03-62.58c5.39.2,12.42-1.74,16.53,2.96,9.35,10.7,3.32,120.73,7.5,143.08Z"/>
</svg>