<?xml version="1.0" encoding="UTF-8"?>
<svg id="Layer_1" data-name="Layer 1" xmlns="http://www.w3.org/2000/svg" viewBox="0 0 450 450">
  <defs>
    <style>
      .cls-1 {
        fill: #2c1810;
      }
    </style>
  </defs>
  <path class="cls-1" d="M243,154.57c30.82.29,55.06-29.12,66.57-54.56,5.81-12.85,9.14-39.82,14.19-47.73,7.83-12.26,19.08-.81,18.32,14.24-2.16,42.96-48.76,108.66-95.68,112.28l1.33,17.84c51.72,6.66,80.06,31.69,90.38,82.49,8.98,44.21,7.49,94.31.38,138.66-3.52,8.52-15.74,5.75-19.1-1.01.83-44.33,10.95-154.2-28.59-183.04-13.15-9.59-29.55-12.21-44.77-16.59.92,56.09-1.29,112.39-.15,168.5.32,15.54,13.37,55.15-17.42,42.61-7.24-69.15-1.87-139.49-3.33-209.12-14.61-11.78-41.32,1-52.32,13.21-16.08,17.84-26.23,86.28-28.42,111.84-1.16,13.53,5.51,76.63-13.95,74.98-17.64-11.1-6.88-25.75-7.18-39.6-.89-40.17.45-66.36,9.69-106.35,9.08-39.29,20.86-72.99,67.36-79.16,18.59-2.46,30.01,9.71,21.28-18.21-47.8-2.22-81.18-45.45-92.7-88.18-3.75-13.93-7.07-28.44,12.07-28.43,11.44,43.54,31.56,87.08,81.06,95.33V36.85c0-8.66,21-8.66,21,0v117.72Z"/>
</svg>