<?xml version="1.0" encoding="UTF-8"?>
<svg id="Layer_1" data-name="Layer 1" xmlns="http://www.w3.org/2000/svg" viewBox="0 0 450 450">
  <defs>
    <style>
      .cls-1 {
        fill: #2c1810;
      }
    </style>
  </defs>
  <path class="cls-1" d="M279.54,310.19c27.49,1.76,6.86,54.86.35,70.98-24.45,8.05-114.37,9.15-138.37.49-17.49-17.68-18.12-50.61-8-71.8,23.12-2.95,72.47,7.14,72.39-26.95l-.4-167.52c-.01-5.04-6.53-14.23-11.39-15.34l-42.1-9.61c-5.99-1.37-10.43-4.51-16.45-12.32,24.28-6.01,57.33-.59,80.33,3.1l69.78,11.19c8.25,1.32,16.23,4.62,22.08,11.72-19.92,11.49-83.21-6.44-83.88,6.02-1.79,33.49.95,67.24,2.21,100.55,1.71,45.15-15.01,95.12,10.84,96.78l42.61,2.72ZM239.99,366.89c9.22-.23,20.28.01,27.27-2.55,12.41-4.56,13.8-33.3,1-36.52-42.12-1.43-81.68-.01-123.91,1.74l-.78,39.73,96.42-2.39Z"/>
</svg>