<?xml version="1.0" encoding="UTF-8"?>
<svg id="Layer_1" data-name="Layer 1" xmlns="http://www.w3.org/2000/svg" viewBox="0 0 450 450">
  <defs>
    <style>
      .cls-1 {
        fill: #2c1810;
      }
    </style>
  </defs>
  <path class="cls-1" d="M319.47,343.57c15.63,60.69-142.56,49.4-175.19,39.82-28.95-8.49-38.31-36.13-33.12-46.38,1.66-3.27,9.59-6.44,13.35-6.49l45.6-.61c11.35-.15,24.57-5.84,33.48-14.06,3.12-59.82,3.65-116.09,2.15-175.84-.17-6.92-5.64-18.38-9.38-23.55l-59.21-4.06c-4.45-.31-10.16-4.17-11.77-7.39s-.18-15.42,3.54-15.66c52.18-3.33,109.6-1.56,162.29,3.91,7.2.75,18.39,6.02,23.7,9.23,2.61,1.57,1.15,11.1-1.3,12.95s-8.86,4.31-12.04,4.25l-54.87-1.02c-4.19-.08-11.61,8.17-11.69,12.27l-1.78,86.34-4.34,89.98c-2.24,46.37,80.05-4.55,90.57,36.31Z"/>
</svg>