<?xml version="1.0" encoding="UTF-8"?>
<svg id="Layer_1" data-name="Layer 1" xmlns="http://www.w3.org/2000/svg" viewBox="0 0 450 450">
  <defs>
    <style>
      .cls-1 {
        fill: #2c1810;
      }
    </style>
  </defs>
  <path class="cls-1" d="M368.65,374.26c-3.97,2.77-14.37,3.02-19.82,1.65-31.29-7.84-60.75-9.6-92.62-10.57-54.56-1.65-106.09-2.11-160.32,3.35-5.14.52-12.7-5.65-12.89-9.67-.21-4.66,6.11-13.75,11.92-14.36,31.79-3.34,60.8-2.42,93.19-.66,5.62.3,15.07-3.57,15.53-10.08,1.98-27.83,15.77-220.83,7.58-228.1-5.5-4.88-51.24,3.2-88.1-6.9-2.97-.82-5.62-8.55-4.09-10.4,1.89-2.28,7.98-6.95,11.01-6.89l146.98,2.73,45.31.59c3.05.04,9.56,6.16,8.87,8.95-5.63,22.72-80.54,11.8-98.32,13.56l-7.47,213.68c-.22,6.34-1.18,22.67,7.79,23.41l119.67,8.61c10,.72,18.94,10.09,15.78,21.12Z"/>
</svg>